<svg version="1.0" xmlns="http://www.w3.org/2000/svg"
 width="960.000000pt" height="960.000000pt" viewBox="0 0 960.000000 960.000000"
 preserveAspectRatio="xMidYMid meet">
<g transform="translate(0.000000,960.000000) scale(0.100000,-0.100000)"
fill="#005cc3" stroke="none">
<path d="M5345 6886 c-213 -36 -421 -159 -545 -323 -61 -80 -135 -227 -152
-299 l-12 -52 -96 -47 c-470 -233 -901 -591 -1179 -981 -173 -244 -322 -547
-381 -779 -13 -49 -25 -92 -27 -94 -1 -2 -20 8 -41 22 -121 80 -313 152 -432
162 -139 13 -275 -32 -371 -122 -165 -154 -184 -373 -65 -766 65 -214 165
-412 278 -552 33 -42 126 -132 211 -204 149 -126 202 -177 285 -274 l41 -48
-6 -68 c-7 -81 7 -129 50 -177 80 -92 214 -105 311 -30 74 56 101 187 58 272
-34 66 -111 124 -165 124 -19 0 -46 24 -112 100 -47 55 -80 100 -73 100 7 0
127 -20 266 -43 l252 -43 28 -38 c37 -53 106 -86 179 -86 191 0 293 230 165
372 -20 23 -55 49 -77 59 -78 36 -188 16 -243 -43 l-22 -24 -179 37 c-285 59
-371 90 -469 169 -109 88 -227 301 -258 465 l-7 40 85 -80 c276 -261 540 -388
808 -388 128 -1 264 28 256 52 -2 9 -16 48 -30 86 -39 111 -58 219 -58 345 -1
542 444 961 1277 1202 138 40 142 40 290 39 323 -4 669 73 1615 358 145 44
266 78 268 76 10 -9 -90 -138 -168 -216 -184 -184 -395 -308 -692 -407 l-106
-35 -22 -61 c-34 -95 -143 -299 -209 -389 -182 -252 -400 -435 -683 -575 -68
-33 -163 -75 -212 -92 -101 -35 -302 -77 -390 -82 l-59 -3 -14 65 c-39 179
-107 431 -130 483 -28 62 -85 120 -139 143 -18 8 -59 14 -91 14 -115 0 -225
-78 -282 -199 -24 -52 -26 -65 -25 -196 0 -119 4 -157 28 -255 76 -305 246
-716 338 -816 55 -60 100 -85 243 -134 123 -42 222 -96 318 -175 l53 -43 -4
-59 c-5 -72 24 -132 86 -180 116 -88 273 -50 338 82 22 47 26 64 21 109 -7 68
-37 127 -82 162 -38 29 -126 57 -150 48 -8 -3 -49 24 -96 63 l-83 68 60 7 c32
4 132 11 222 17 l162 10 48 -48 c54 -54 117 -77 183 -67 207 33 269 303 98
422 -35 24 -54 29 -115 32 -64 4 -79 1 -116 -21 -24 -14 -52 -36 -64 -49 -21
-25 -22 -25 -285 -33 -145 -4 -284 -8 -308 -9 l-44 -1 -44 130 c-23 71 -43
135 -43 141 0 6 27 14 64 17 189 18 479 111 686 219 191 101 329 200 487 351
l82 79 53 -77 c95 -137 273 -442 292 -502 5 -15 -8 -30 -59 -71 -57 -45 -69
-51 -87 -41 -32 17 -120 6 -156 -20 -58 -41 -85 -87 -90 -151 -7 -100 33 -175
113 -211 106 -49 250 15 271 120 5 24 23 43 75 81 38 28 71 50 75 50 3 0 4
-58 3 -128 l-4 -128 -38 -34 c-67 -59 -88 -128 -63 -214 17 -59 70 -120 122
-142 49 -20 138 -18 183 5 129 67 158 224 61 333 l-36 41 13 116 c6 64 12 119
12 123 1 4 59 -23 131 -60 108 -56 130 -71 135 -94 19 -81 110 -148 203 -148
64 0 98 13 141 53 113 107 87 287 -51 358 -48 25 -131 24 -178 0 l-34 -19 -61
37 c-99 61 -178 107 -212 125 -31 16 -33 19 -33 72 0 121 -46 362 -101 533
-59 184 -160 404 -250 546 -21 34 -39 66 -39 72 0 5 60 33 133 62 476 193 833
531 912 863 32 136 11 317 -50 439 -26 51 -27 54 -15 131 29 182 -19 342 -140
471 -195 209 -540 223 -750 30 l-56 -51 -81 11 c-80 12 -81 12 -120 62 -193
244 -513 371 -808 321z m326 -308 c91 -34 150 -70 213 -132 75 -73 132 -165
163 -263 23 -75 25 -95 20 -191 -6 -131 -30 -205 -99 -308 -102 -152 -271
-249 -458 -261 -288 -18 -556 190 -614 479 -20 95 -20 143 -1 233 37 173 157
331 309 405 120 59 173 71 296 66 79 -3 121 -10 171 -28z"/>
<path d="M5348 6385 c-90 -33 -183 -121 -227 -214 -22 -48 -26 -69 -26 -151 0
-109 15 -156 75 -235 136 -182 408 -207 574 -55 108 99 152 259 111 398 l-16
51 -52 -39 c-72 -55 -133 -74 -242 -74 -107 -1 -176 17 -214 55 -52 52 -48
115 12 177 45 47 85 70 153 86 l59 14 -85 0 c-48 1 -101 -5 -122 -13z"/>
</g>
</svg>